<svg xmlns="http://www.w3.org/2000/svg" xmlns:xlink="http://www.w3.org/1999/xlink" style="isolation:isolate" width="227.317" height="197.515" viewBox="0 0 148.488 148.136"><defs><clipPath id="_clipPath_0tCpY4x2w3uQ7PmcVLtsyRrFCWNZ9YXn"><rect width="425.488" height="148.136"/></clipPath></defs><g clip-path="url(#_clipPath_0tCpY4x2w3uQ7PmcVLtsyRrFCWNZ9YXn)"><clipPath id="_clipPath_m7Uu0Nhgnr5SS8lXYbhZabxtktBDo1z9"><path fill="#FFF" d="M 0 0 L 0 148.136 L 425.488 148.136 L 425.488 0 L 0 0 Z"/></clipPath><g clip-path="url(#_clipPath_m7Uu0Nhgnr5SS8lXYbhZabxtktBDo1z9)"><path fill="#1D2C5E" fill-rule="evenodd" d="M 82.522 0 C 113.722 0 140.414 19.293 151.325 46.599 L 138.65 50.637 C 129.475 28.685 107.801 13.258 82.522 13.258 C 48.937 13.258 21.712 40.483 21.712 74.068 C 21.712 74.484 21.719 74.899 21.728 75.314 L 9.325 85.457 C 8.751 81.745 8.454 77.94 8.454 74.068 C 8.454 33.162 41.615 0 82.522 0 Z M 156.056 65.179 C 156.405 68.094 156.589 71.059 156.589 74.068 C 156.589 114.975 123.428 148.136 82.522 148.136 C 52.733 148.136 27.057 130.549 15.297 105.194 L 27.148 99.231 C 36.718 120.259 57.912 134.878 82.522 134.878 C 116.106 134.878 143.331 107.652 143.331 74.068 C 143.331 73.444 143.319 72.824 143.3 72.205 L 156.056 65.179 Z"/><path fill="#1D2C5E" fill-rule="evenodd" d="M 0 103.695 L 72.451 44.44 L 69.445 69.075 L 111.725 45.116 L 109.581 68.518 L 165.042 50.851 L 89.82 92.283 L 95.437 68.708 L 51.981 94.176 L 54.854 76.094 L 0 103.695 Z"/></g></g></svg>